<svg fill="none" height="500" viewBox="0 0 500 500" width="500" xmlns="http://www.w3.org/2000/svg"><style>.test {fill: var(--color-theme-selected);}</style><rect fill="#100a0a" height="500" rx="64" width="500"/><g fill="#34fdaa" class="test"><path d="m135.121 189.503 54.594-114.503h56.285l-70.054 144.94h-81.8916l-70.0544-144.94h56.2851z"/><path d="m326.162 219.844h-72.162l74.08-71.922-74.08-71.922h72.162l38.838 43.153 38.838-43.153h72.162l-74.08 71.922 74.08 71.922h-72.162l-38.838-43.153z"/><path d="m24 424.587v-151.536h58.0887v35.359c10.1024-12.797 22.0573-22.731 35.8633-29.802 13.975-7.072 30.981-10.608 51.017-10.608 51.354 0 77.031 25.172 77.031 75.515v81.072h-58.089v-59.352c0-17.174-3.536-29.633-10.607-37.378-7.072-7.914-19.363-11.871-36.874-11.871-18.858 0-33.338 4.125-43.4402 12.376-9.9341 8.25-14.9011 20.541-14.9011 36.873v59.352z"/><path d="m356 424.559v-90.059h120v90.059z"/></g></svg>